<svg width="2112" height="2048" viewBox="0 0 2112 2048" fill="none" xmlns="http://www.w3.org/2000/svg">
<g clip-path="url(#clip0_958_729)">
<path d="M773.224 1936.78C722.519 1919.69 674.639 1898.21 628.342 1873.01C507.234 1807.09 404.007 1719.97 319.799 1610.88C240.724 1508.44 184.741 1394.39 151.928 1269.01C129.244 1182.33 119.633 1094.27 122.167 1004.83C124.49 922.848 136.93 842.351 160.393 763.787C189.964 664.769 234.908 573.058 293.904 488.168C351.256 405.645 420.358 334.312 499.73 273.044C554.951 230.419 614.105 193.882 677.444 164.254C751.381 129.667 828.267 104.302 908.477 89.1756C982.853 75.1492 1057.86 71.3421 1133.4 75.2975C1179.07 77.6889 1224.34 83.0094 1269.09 92.251C1351.96 109.367 1431.43 136.458 1507.15 174.461C1584.73 213.398 1655.89 261.742 1720.33 319.825C1808.04 398.888 1879.89 490.335 1934.41 595.307C1975.48 674.379 2005.44 757.385 2023.03 844.671C2039.1 924.372 2045.5 1004.88 2040.56 1086.22C2035.45 1170.46 2019.47 1252.52 1992.75 1332.48C1963.21 1420.86 1921.28 1502.98 1867.45 1579.08C1810.99 1658.88 1743.56 1727.99 1666.23 1787.63C1600.49 1838.33 1529.48 1880.05 1453.2 1912.73C1382.52 1943.02 1309.13 1964.05 1233.18 1976.25C1171.13 1986.21 1108.71 1990.3 1045.94 1987.77C966.743 1984.58 889.01 1972.01 812.991 1949.34C799.923 1945.44 786.967 1941.17 773.224 1936.78ZM1250.83 134.067C1203.05 124.9 1154.84 119.782 1104.74 118.456C1104.74 212.5 1104.74 305.871 1104.74 399.088C1088.47 399.088 1073.65 399.088 1057.78 399.088C1057.78 305.261 1057.78 212.154 1057.78 118.676C1017.69 119.299 978.886 122.431 940.409 128.809C871.88 140.166 805.273 158.394 740.942 184.895C656.252 219.783 578.458 266.251 507.476 323.949C406.337 406.16 325.486 504.959 265.963 621.166C205.197 739.798 172.609 865.692 166.836 998.692C166.669 1002.54 166.815 1006.4 166.815 1011.13C256.634 1011.13 345.166 1011.13 434.253 1011.13C434.253 1027.88 434.253 1043.74 434.253 1060.52C345.126 1060.56 256.03 1060.38 166.174 1060.68C173.405 1232.96 223.253 1390 318.012 1532.21C425.594 1693.68 570.884 1809.25 750.615 1881.33C849.026 1920.8 951.585 1941.29 1058.61 1943.82C1058.61 1851.96 1058.61 1761.44 1058.61 1670.65C1074.24 1670.65 1089.06 1670.65 1104.58 1670.65C1104.58 1716.45 1104.54 1761.72 1104.59 1806.99C1104.63 1852.46 1104.33 1897.94 1104.78 1944.34C1353.07 1934.55 1563.2 1840.77 1736.81 1666.52C1924.69 1477.97 1994.41 1237.35 1995.95 1060.38C1907.17 1060.38 1818.39 1060.38 1729.93 1060.38C1729.93 1043.39 1729.93 1027.54 1729.93 1010.58C1819.03 1010.58 1907.47 1010.58 1996.38 1010.58C1996.38 1007.84 1996.38 1006.22 1996.38 1004.61C1996.42 973.554 1993.89 942.636 1989.38 911.988C1979.17 842.653 1962.25 775.048 1936.98 709.484C1894.14 598.364 1831.95 499.466 1750.95 412.454C1690.91 347.962 1623.11 292.781 1547.41 247.466C1486.32 210.897 1421.93 181.631 1354.09 160.028C1320.77 149.416 1286.87 140.953 1250.83 134.067Z" fill="black"/>
<path d="M1720.93 232.992C1728.99 239.485 1736.54 245.463 1743.97 251.583C1746.52 253.684 1749.05 255.919 1751.11 258.475C1757.49 266.356 1757.23 273.862 1750.66 280.798C1744.41 287.404 1735.88 288.284 1728.34 282.294C1716.39 272.803 1704.69 262.973 1693.08 253.066C1688.01 248.738 1685.22 243.326 1687.4 236.281C1691.22 223.939 1702.51 219.849 1713.26 227.09C1715.73 228.755 1718.01 230.711 1720.93 232.992Z" fill="#00ABDC"/>
<path d="M1497.71 96.336C1507.08 100.78 1515.93 104.585 1524.38 109.145C1532.82 113.7 1535.21 123.048 1530.78 131.346C1526.85 138.691 1519.34 142.388 1511.45 139.097C1496.17 132.726 1481.09 125.794 1466.32 118.323C1458.2 114.216 1456.42 105.376 1460.52 96.7221C1463.99 89.418 1471.71 85.7957 1479.7 88.4961C1485.64 90.5051 1491.26 93.4824 1497.71 96.336Z" fill="#00ABDC"/>
<path d="M1915.08 487.939C1911.21 485.364 1907.45 483.456 1905.17 480.428C1896.38 468.735 1887.96 456.756 1879.61 444.741C1874.68 437.655 1874.92 430.534 1879.76 424.513C1886.41 416.24 1898.39 415.02 1904.95 423.402C1915.37 436.732 1925.11 450.695 1934.02 465.079C1939.79 474.382 1933.59 485.807 1922.81 488.002C1920.58 488.456 1918.18 488.083 1915.08 487.939Z" fill="#00ABDC"/>
<path d="M262.602 458.963C246.911 453.864 242.894 442.903 251.88 430.612C260.297 419.1 268.813 407.633 277.867 396.625C284.449 388.623 292.951 387.951 300.787 393.639C308.605 399.314 310.358 407.953 304.707 416.35C299.714 423.771 294.019 430.719 288.669 437.902C285.698 441.892 282.714 445.877 279.887 449.969C275.865 455.791 270.793 459.565 262.602 458.963Z" fill="#00ABDC"/>
<path d="M1115.3 32.9178C1111.17 39.5858 1105.6 41.52 1098.75 41.4083C1085.46 41.1911 1072.15 41.3782 1058.85 41.2595C1045.38 41.1393 1037.3 30.5775 1041.5 18.7754C1043.86 12.1182 1048.63 8.15224 1055.56 8.00742C1071.19 7.68104 1086.85 7.47111 1102.46 8.0099C1114.43 8.423 1119.62 18.5607 1115.3 32.9178Z" fill="black"/>
<path d="M485.254 206.662C502.185 213.808 504.402 227.214 490.867 238.249C480.035 247.08 468.808 255.431 457.68 263.895C451.694 268.447 445.38 268.449 439.083 264.487C432.93 260.615 429.881 254.43 431.755 247.388C432.717 243.775 434.914 239.823 437.758 237.495C449.341 228.011 461.235 218.879 473.378 210.122C476.389 207.951 480.764 207.67 485.254 206.662Z" fill="black"/>
<path d="M673.556 128.694C670.202 128.326 667.38 128.359 665.024 127.329C659.067 124.724 655.612 119.963 655.261 113.373C654.893 106.466 657.445 100.636 663.836 97.7143C678.045 91.2177 692.32 84.7973 706.889 79.1775C715.082 76.017 724.396 81.0588 727.453 88.8318C730.832 97.4189 728.121 105.541 719.372 109.861C710.139 114.419 700.473 118.11 690.951 122.072C685.447 124.362 679.854 126.44 673.556 128.694Z" fill="#00ABDC"/>
<path d="M133.799 686.098C121.803 679.933 119.275 674.115 123.843 662.439C128.809 649.748 134.132 637.184 139.709 624.748C144.329 614.444 152.171 611.12 161.46 614.806C170.706 618.474 174.505 627.631 170.427 637.941C165.291 650.926 159.803 663.779 154.192 676.567C150.441 685.115 143.494 687.907 133.799 686.098Z" fill="#00ABDC"/>
<path d="M1224.45 21.4145C1229.4 20.5923 1233.75 19.3682 1237.85 19.9506C1251.33 21.8674 1264.78 24.1535 1278.13 26.8523C1288.09 28.865 1292.89 35.229 1292.47 44.312C1292.01 54.2696 1285.7 60.3922 1275.7 59.9374C1270.75 59.7124 1265.84 58.6043 1260.93 57.7451C1251.44 56.0814 1242 54.0112 1232.46 52.6807C1224.92 51.6284 1218.78 48.9712 1216.73 41.1373C1214.68 33.3296 1217.1 26.7126 1224.45 21.4145Z" fill="black"/>
<path d="M2072.73 761.399C2076.16 774.706 2079.63 787.201 2082.45 799.842C2084.55 809.266 2079.98 816.595 2071.35 819.177C2063.02 821.67 2053.98 817.837 2051.27 808.981C2046.6 793.748 2042.7 778.246 2039.32 762.672C2037.63 754.82 2043.11 747.981 2051.21 745.391C2058.64 743.016 2065.78 745.929 2069.68 753.197C2070.92 755.515 2071.56 758.157 2072.73 761.399Z" fill="#00ABDC"/>
<path d="M116.304 1269.55C117.8 1276.18 119.639 1281.94 120.28 1287.83C121.142 1295.74 116.231 1302.01 108.624 1304.06C100.427 1306.27 92.7309 1303.22 89.0599 1296.15C88.1527 1294.41 87.5204 1292.48 87.0278 1290.56C83.7196 1277.71 80.2508 1264.89 77.2964 1251.95C74.9063 1241.49 79.6876 1233.73 89.2644 1231.37C99.1157 1228.95 106.833 1233.41 109.749 1243.67C112.108 1251.96 114.009 1260.38 116.304 1269.55Z" fill="#00ABDC"/>
<path d="M71.7989 841.085C74.5431 827.586 76.898 814.833 79.8959 802.232C82.3139 792.069 89.4747 787.539 98.9335 789.271C108.775 791.073 114.072 798.403 112.236 809.074C109.983 822.166 107.139 835.163 104.293 848.145C101.967 858.754 94.4581 864.588 85.4552 863.254C75.1349 861.724 70.2712 854.179 71.7989 841.085Z" fill="black"/>
<path d="M1905.64 1641.71C1903.56 1644.37 1902.07 1646.61 1900.22 1648.5C1894.04 1654.76 1884.52 1655.14 1877.57 1649.57C1871 1644.29 1869.35 1635.53 1874.44 1628.16C1882.56 1616.4 1890.96 1604.81 1899.74 1593.54C1906.27 1585.18 1915.64 1584.14 1923.51 1590.01C1931.13 1595.69 1932.36 1605.07 1926.18 1613.85C1919.68 1623.08 1912.78 1632.05 1905.64 1641.71Z" fill="black"/>
<path d="M2003.26 1467.54C1999.61 1467.07 1996.5 1466.96 1993.86 1465.79C1985.32 1462.01 1981.72 1453.96 1985.3 1445.27C1990.85 1431.77 1996.76 1418.4 2003.1 1405.25C2007.43 1396.27 2016.51 1393.43 2024.88 1397.49C2033.11 1401.49 2036.54 1409.54 2032.92 1418.39C2027.53 1431.6 2021.57 1444.57 2015.88 1457.66C2013.58 1462.96 2009.42 1465.94 2003.26 1467.54Z" fill="#00ABDC"/>
<path d="M1982.73 1522.68C1976.16 1534.32 1970.2 1545.46 1963.69 1556.26C1959.78 1562.73 1952.57 1565 1945.48 1563.04C1938.46 1561.09 1933.62 1555.87 1933.23 1549C1933.07 1546.13 1933.44 1542.8 1934.79 1540.36C1942.01 1527.29 1949.45 1514.33 1957.18 1501.55C1960.98 1495.28 1967.09 1492.53 1974.32 1494.32C1980.89 1495.94 1985.17 1500.4 1987.05 1507.08C1988.69 1512.9 1985.5 1517.33 1982.73 1522.68Z" fill="#00ABDC"/>
<path d="M2074.13 960.099C2073.99 956.831 2073.79 954.507 2073.78 952.183C2073.76 942.366 2079.15 936.332 2088.47 935.659C2098.2 934.956 2105.26 939.645 2106.27 948.957C2107.81 963.143 2108.83 977.423 2109.2 991.686C2109.47 1002.03 2103.15 1007.81 2093.2 1008.03C2082.68 1008.26 2076.48 1002.5 2075.87 991.889C2075.28 981.608 2074.74 971.325 2074.13 960.099Z" fill="black"/>
<path d="M2067.2 1222.11C2083.97 1221.44 2090.88 1229.25 2087.53 1244.8C2084.81 1257.45 2081.59 1270 2078.23 1282.49C2075.7 1291.89 2068.95 1295.76 2059.26 1294.08C2050 1292.48 2044.98 1285.92 2045.81 1276.27C2046.01 1273.97 2046.67 1271.71 2047.2 1269.45C2049.66 1259.12 2052.17 1248.79 2054.64 1238.46C2056.32 1231.43 2059.01 1225.15 2067.2 1222.11Z" fill="black"/>
<path d="M1976.4 531.558C1979.52 537.48 1982.64 542.601 1984.99 548.053C1988.86 557.018 1986.05 564.983 1978.04 569.29C1970.03 573.599 1961.31 571.773 1956.31 563.787C1949.82 553.409 1943.72 542.755 1938.07 531.897C1934 524.086 1936.85 515.839 1944.16 511.167C1952.04 506.139 1960.52 507.295 1966.16 514.852C1969.9 519.871 1972.78 525.533 1976.4 531.558Z" fill="#00ABDC"/>
<path d="M2103.54 1133.84C2102.4 1149.41 2101.66 1164.31 2099.23 1178.93C2097.76 1187.72 2088.91 1191.79 2079.78 1189.97C2071.07 1188.22 2065.63 1180.77 2066.7 1171.75C2067.87 1161.88 2069.38 1152.06 2070.42 1142.18C2071.3 1133.95 2074.17 1127.11 2082.76 1124.83C2091.34 1122.56 2098.47 1125.18 2103.54 1133.84Z" fill="#00ABDC"/>
<path d="M88.3009 1087.44C88.8342 1094.64 89.6163 1100.92 89.7626 1107.21C90.001 1117.47 84.1773 1123.91 74.638 1124.51C64.3387 1125.17 57.1312 1119.5 56.1871 1109.31C55.1768 1098.41 54.4823 1087.46 54.1232 1076.52C53.7895 1066.36 60.5434 1059.02 70.0085 1058.49C79.8063 1057.93 86.8656 1064.23 87.7998 1074.58C88.1574 1078.54 88.1211 1082.54 88.3009 1087.44Z" fill="black"/>
<path d="M84.137 893.421C92.0848 896.593 94.7494 902.344 94.2171 909.622C93.4412 920.233 92.5627 930.852 91.1997 941.399C90.0328 950.428 83.3207 955.904 74.8674 955.603C65.3522 955.263 58.0071 948.682 58.1949 939.341C58.4017 929.058 59.3121 918.736 60.7243 908.543C62.525 895.546 69.7115 890.986 84.137 893.421Z" fill="#00ABDC"/>
<path d="M1853.2 1705.15C1847.81 1711.08 1843.19 1716.78 1837.92 1721.79C1832.51 1726.92 1825.12 1727.36 1818.53 1723.65C1812.47 1720.24 1809.28 1714.89 1810.26 1708C1810.74 1704.6 1812.38 1700.91 1814.6 1698.29C1821.02 1690.7 1827.75 1683.33 1834.82 1676.35C1842.13 1669.15 1850.95 1669.08 1857.94 1675.45C1864.79 1681.69 1865.18 1690.46 1858.88 1698.6C1857.26 1700.7 1855.42 1702.62 1853.2 1705.15Z" fill="black"/>
<path d="M2104.36 1043.5C2106.11 1045.64 2107.83 1047.12 2108.27 1048.92C2111.22 1061.1 2110.81 1073.41 2107.16 1085.26C2105.02 1092.21 2097.69 1095.05 2089.84 1093.84C2082.24 1092.67 2076.37 1087.48 2076.09 1080.22C2075.75 1071.59 2075.7 1062.81 2076.92 1054.29C2078.77 1041.35 2090.27 1036.83 2104.36 1043.5Z" fill="#2D74AA"/>
<path d="M231.542 1560.97C219.19 1573.06 208.985 1571.7 200.589 1557.57C197.874 1553 194.978 1548.52 192.557 1543.8C188.06 1535.03 191.027 1525.4 199.403 1520.65C207.835 1515.88 215.908 1518.01 221.597 1526.87C225.006 1532.17 228.032 1537.73 231.139 1543.22C234.268 1548.75 235.128 1554.45 231.542 1560.97Z" fill="#2D74AA"/>
<path d="M1994.51 639.495C1990.31 631.529 1985.95 624.354 1983.06 616.628C1978.93 605.589 1987.02 594.649 1998.7 594.369C2004.97 594.219 2009.71 596.906 2012.63 602.343C2015.93 608.485 2018.99 614.762 2021.96 621.072C2025.1 627.741 2024.53 634.011 2019.19 639.443C2013.77 644.949 2006.2 646.306 1999.01 642.975C1997.53 642.294 1996.33 641.033 1994.51 639.495Z" fill="#2D74AA"/>
<path d="M2092.89 855.421C2095.27 865.116 2097.75 874.121 2098.93 883.292C2099.92 891.083 2093.57 898.495 2086.09 900.012C2078.02 901.651 2068.86 897.22 2066.8 889.475C2064.67 881.477 2063.27 873.148 2062.79 864.891C2062.41 858.171 2065.92 852.653 2072.61 850.062C2080.23 847.112 2086.98 848.366 2092.89 855.421Z" fill="#00ABDC"/>
<path d="M285.218 1670.64C272.533 1665.55 266.711 1655.01 261.941 1644.2C259.066 1637.69 263.06 1630.41 269.412 1626.41C275.637 1622.49 283.391 1622.5 288.629 1627.97C294.3 1633.9 299.855 1640.4 303.59 1647.62C309.521 1659.09 300.319 1670.56 285.218 1670.64Z" fill="black"/>
<path d="M1783.66 334.474C1779.79 330.754 1776.15 327.796 1773.13 324.297C1766.44 316.543 1766.8 308.194 1773.71 301.189C1780.44 294.376 1787.93 293.857 1795.82 300.235C1800.45 303.973 1804.81 308.133 1808.77 312.568C1816.07 320.738 1815.84 329.266 1808.63 336.416C1801.82 343.183 1794.3 343.168 1785.62 336.355C1785.1 335.947 1784.65 335.447 1783.66 334.474Z" fill="black"/>
<path d="M341.324 1730.47C334.024 1731.15 329.126 1728.2 325.093 1723.29C321.933 1719.45 318.456 1715.84 315.498 1711.85C310.471 1705.06 310.945 1697.32 316.406 1690.89C321.767 1684.58 330.275 1682.25 336.831 1687.5C343.923 1693.18 350.59 1700.17 355.227 1707.92C360.222 1716.27 353.694 1726 341.324 1730.47Z" fill="#2D74AA"/>
<path d="M357.552 338.967C361.661 346.764 359.996 353.112 354.874 358.783C351.1 362.961 347.337 367.198 343.158 370.952C336.015 377.37 326.873 376.865 319.947 370.094C313.891 364.173 313.383 355.656 319.019 348.55C321.891 344.928 325.235 341.665 328.495 338.368C339.042 327.702 346.374 327.717 357.552 338.967Z" fill="black"/>
<path d="M1837.53 392.504C1834.49 388.908 1831.75 385.987 1829.38 382.79C1823.51 374.856 1824.49 365.825 1831.71 359.696C1838.6 353.835 1847.26 353.995 1854.01 360.604C1858.27 364.77 1862.26 369.29 1865.85 374.044C1871.89 382.05 1871.37 390.018 1864.92 396.439C1858.7 402.622 1850.07 402.964 1842.29 397.206C1840.71 396.032 1839.43 394.448 1837.53 392.504Z" fill="#2D74AA"/>
<path d="M1600.71 164.474C1593.87 177.291 1586.49 179.674 1574.44 173.407C1570.03 171.116 1565.6 168.758 1561.57 165.888C1554.12 160.583 1552.62 151.954 1557.3 143.862C1561.64 136.38 1569.83 133.508 1577.84 137.133C1582.96 139.447 1587.92 142.2 1592.68 145.184C1599.47 149.439 1602.81 155.503 1600.71 164.474Z" fill="black"/>
<path d="M131.013 1381.77C118.348 1381.66 113.995 1378.68 110.171 1367.96C108.724 1363.9 107.226 1359.82 106.233 1355.64C103.972 1346.13 108.474 1338.43 117.737 1335.42C126.122 1332.7 134.57 1336.38 138.255 1344.76C140.118 1348.99 141.433 1353.48 142.799 1357.92C146.555 1370.12 143.817 1375.94 131.013 1381.77Z" fill="#00ABDC"/>
<path d="M1629.78 208.161C1625.08 204.352 1623.01 199.992 1623.12 194.675C1623.38 182.039 1635.71 174 1646.97 179.706C1653.11 182.815 1658.86 187.054 1664.03 191.63C1670.53 197.373 1670.75 206.24 1665.56 213.255C1660.37 220.269 1652 222.325 1644.44 217.985C1639.56 215.185 1635.04 211.751 1629.78 208.161Z" fill="black"/>
<path d="M2033.55 671.83C2040.23 672.636 2043.99 676.209 2046.28 681.332C2048.71 686.781 2051.13 692.285 2052.91 697.965C2055.39 705.847 2051.72 713.742 2044.55 717.239C2036.96 720.943 2027.43 719.176 2023.39 711.924C2019.57 705.046 2016.51 697.449 2014.75 689.793C2012.68 680.808 2020.8 673.342 2033.55 671.83Z" fill="#2D74AA"/>
<path d="M98.2412 1183.62C96.882 1195.17 92.1341 1200.21 82.998 1200.7C73.5357 1201.21 66.7958 1195.9 64.6701 1185.95C63.6993 1181.4 63.1054 1176.76 62.5369 1172.14C61.353 1162.51 66.9115 1154.97 76.2051 1153.4C85.9223 1151.76 93.6012 1156.45 95.7942 1165.96C97.0596 1171.45 97.4235 1177.15 98.2412 1183.62Z" fill="black"/>
<path d="M1754.14 1765.89C1756.32 1751.72 1766.45 1745.12 1777.06 1739.58C1783.21 1736.36 1791.22 1739.73 1795.54 1745.56C1799.28 1750.61 1800.01 1759.42 1795.84 1764.25C1790.89 1769.99 1785.48 1775.71 1779.22 1779.88C1769.2 1786.56 1757.97 1780.23 1754.14 1765.89Z" fill="#2D74AA"/>
<path d="M105.086 719.002C111.578 713.316 118.103 712.667 125.013 716.254C132.347 720.061 135.487 726.55 133.399 734.507C131.887 740.268 130.012 745.994 127.66 751.461C124.139 759.648 116.942 763.095 109.143 760.984C99.8969 758.482 94.233 751.61 96.1521 742.727C97.8717 734.768 101.677 727.259 105.086 719.002Z" fill="black"/>
<path d="M141.586 1411.24C154.96 1405.38 162.396 1408.12 167.924 1420.32C169.702 1424.25 171.567 1428.16 172.955 1432.23C175.958 1441.03 172.457 1449.13 164.274 1453C155.978 1456.93 146.427 1454.11 142.062 1445.8C139.148 1440.24 136.787 1434.32 134.874 1428.34C132.687 1421.51 135.831 1416.12 141.586 1411.24Z" fill="black"/>
<path d="M227.923 477.949C233.975 478.309 238.824 480.298 241.474 484.687C243.738 488.437 246.683 494.187 245.311 497.259C241.608 505.551 236.617 513.669 230.499 520.357C225.607 525.704 215.678 523.83 209.519 518.453C203.57 513.259 202.174 505.839 206.263 498.659C209.051 493.761 212.388 489.175 215.509 484.469C218.262 480.317 222.037 477.94 227.923 477.949Z" fill="#2D74AA"/>
<path d="M586.543 144.719C591.182 130.487 603.209 126.463 614.808 122.69C620.669 120.784 627.437 125.939 630.711 132.458C633.939 138.888 633.564 146.703 628.014 150.708C621.098 155.699 613.471 160.333 605.446 162.996C595.901 166.163 588.139 158.251 586.543 144.719Z" fill="#2D74AA"/>
<path d="M2058.44 1350.5C2057.41 1353.76 2056.82 1356.38 2055.75 1358.77C2052.01 1367.1 2043.89 1370.65 2035.18 1367.94C2027.27 1365.49 2022.19 1357.83 2023.96 1349.39C2025.3 1342.98 2027.43 1336.59 2030.21 1330.66C2033.85 1322.89 2042.41 1320.17 2050.45 1323.28C2058.76 1326.5 2062.73 1333.59 2060.87 1342.14C2060.31 1344.71 2059.41 1347.21 2058.44 1350.5Z" fill="#2D74AA"/>
<path d="M557.456 166.471C566.575 178.015 565.842 185.895 555.268 194.084C551.606 196.921 547.739 199.567 543.701 201.829C535.175 206.605 526.437 204.291 521.18 196.196C515.94 188.126 517.599 179.689 525.839 173.609C529.303 171.053 533.134 168.999 536.65 166.508C543.322 161.783 549.995 160.951 557.456 166.471Z" fill="black"/>
<path d="M63.9877 1028.34C55.9401 1024.79 53.0913 1019.01 53.6173 1011.18C53.9072 1006.86 53.6477 1002.51 53.9845 998.199C54.675 989.362 60.8565 983.115 69.2106 982.502C77.2757 981.91 86.4202 988.494 87.2898 996.55C87.9986 1003.12 88.0234 1009.95 87.0333 1016.46C85.5019 1026.54 77.2536 1030.65 63.9877 1028.34Z" fill="black"/>
<path d="M391.574 318.239C382.537 318.29 376.778 314.289 373.935 306.773C370.991 298.991 373.991 292.476 379.825 287.168C383.741 283.604 387.636 279.899 392.039 277.018C398.401 272.855 405.438 274.106 411.053 279.582C416.81 285.197 418.965 293.567 414.695 299.388C408.872 307.324 402.48 315.1 391.574 318.239Z" fill="#2D74AA"/>
<path d="M759.023 60.8729C764.879 58.4078 770.027 56.0055 775.422 54.4849C786.229 51.4394 794.508 55.8581 797.482 65.7327C800.373 75.3324 795.74 83.7795 785.392 87.5622C782.595 88.5848 779.692 89.3277 776.818 90.1306C767.343 92.7774 759.85 90.5945 755.704 84.0168C750.995 76.5467 751.83 69.5904 759.023 60.8729Z" fill="black"/>
<path d="M1328.24 41.6442C1339.81 38.5092 1349.26 43.0604 1358.14 47.9383C1364.63 51.5061 1365.85 60.1748 1362.54 67.4919C1359.15 74.9918 1352.7 78.9511 1344.98 77.5332C1339.79 76.579 1334.6 75.1417 1329.69 73.2067C1317.44 68.3821 1314.39 55.6444 1322.9 45.6929C1324.17 44.213 1325.97 43.1856 1328.24 41.6442Z" fill="#2D74AA"/>
<path d="M199.898 577.741C191.694 590.378 183.709 593.033 174.073 586.901C166.931 582.356 164.338 574.841 167.753 567.007C170.004 561.84 172.635 556.769 175.69 552.039C180.641 544.372 188.666 542.329 196.599 546.147C204.37 549.888 208.158 559.009 205.062 567.216C203.776 570.623 201.849 573.788 199.898 577.741Z" fill="black"/>
<path d="M907.552 55.5071C898.843 51.8478 895.108 45.9428 895.63 37.2108C896.029 30.5273 898.971 25.4039 905.314 23.5936C911.941 21.7022 918.903 20.3531 925.769 20.0941C933.983 19.7842 939.289 25.4874 940.79 34.397C942.228 42.9379 938.773 50.3254 930.765 52.5153C923.537 54.4918 915.834 54.733 907.552 55.5071Z" fill="#2D74AA"/>
<path d="M1423.09 66.7587C1435.48 73.4158 1438.55 82.4542 1432.28 92.1781C1428.51 98.0272 1421.7 101.156 1415.07 99.3561C1409.64 97.8821 1404.24 96.0033 1399.16 93.5931C1390.08 89.2854 1387.05 80.8064 1390.85 71.9115C1394.63 63.0346 1402.68 59.4058 1412.19 62.4625C1415.67 63.578 1419.01 65.0927 1423.09 66.7587Z" fill="black"/>
<path d="M854.99 34.291C858.359 35.8579 861.344 36.879 863.453 38.8409C873.112 47.8253 870.376 62.605 858.046 67.2249C852.81 69.1864 847.139 70.3166 841.566 70.968C833.056 71.9628 825.97 66.4141 824.003 58.0315C821.999 49.4891 825.658 41.4184 833.885 38.653C840.42 36.4561 847.412 35.6192 854.99 34.291Z" fill="black"/>
<path d="M968.32 26.5641C970.831 16.3737 977.153 12.126 986.613 11.8782C990.27 11.7824 993.925 11.1667 997.571 11.2405C1006.54 11.4219 1013.2 17.9951 1013.79 26.9266C1014.36 35.6681 1009.29 42.6184 1000.79 44.3673C997.212 45.1018 993.522 45.2487 989.9 45.7621C979.089 47.2942 968.176 41.809 968.32 26.5641Z" fill="#2D74AA"/>
<path d="M1160.6 11.293C1165.71 11.5355 1170.05 11.5976 1174.34 12.0453C1184.6 13.1146 1190.82 20.5099 1189.84 30.2395C1188.85 40.176 1181.69 46.1907 1171.37 45.5384C1167.73 45.3085 1164.11 44.6456 1160.49 44.1444C1150.04 42.6975 1144.66 37.4296 1144.42 28.4606C1144.18 18.9017 1149.37 13.1096 1160.6 11.293Z" fill="black"/>
<path d="M181.009 1499.39C166.94 1498.86 157.269 1487.32 160.524 1476.03C162.494 1469.19 168.691 1464.11 175.685 1463.6C183.249 1463.06 189.022 1466.91 192.551 1474.87C196.07 1482.8 195.123 1489.99 189.444 1494.83C187.239 1496.71 184.335 1497.76 181.009 1499.39Z" fill="black"/>
<path d="M232.67 1603.4C224.954 1593.78 224.746 1587.16 231.367 1580.15C237.213 1573.96 246.078 1572.91 252.918 1577.6C259.557 1582.15 261.985 1589.87 258.9 1596.62C255.184 1604.75 246.881 1608.81 238.586 1606.38C236.723 1605.83 235.027 1604.72 232.67 1603.4Z" fill="black"/>
<path d="M1251.68 134.193C1286.87 140.952 1320.77 149.416 1354.09 160.027C1421.93 181.63 1486.32 210.897 1547.41 247.465C1623.11 292.781 1690.91 347.962 1750.95 412.453C1831.95 499.465 1894.14 598.363 1936.98 709.483C1962.25 775.048 1979.17 842.652 1989.38 911.987C1993.89 942.635 1996.42 973.553 1996.38 1004.6C1996.38 1006.22 1996.38 1007.84 1996.38 1010.58C1907.47 1010.58 1819.03 1010.58 1729.93 1010.58C1729.93 1027.54 1729.93 1043.39 1729.93 1060.38C1818.39 1060.38 1907.17 1060.38 1995.95 1060.38C1994.41 1237.35 1924.69 1477.97 1736.81 1666.52C1563.2 1840.76 1353.07 1934.55 1104.78 1944.34C1104.33 1897.94 1104.63 1852.46 1104.59 1806.98C1104.54 1761.72 1104.58 1716.45 1104.58 1670.65C1089.06 1670.65 1074.24 1670.65 1058.61 1670.65C1058.61 1761.44 1058.61 1851.96 1058.61 1943.81C951.585 1941.29 849.026 1920.8 750.615 1881.33C570.885 1809.25 425.594 1693.67 318.012 1532.21C223.253 1390 173.406 1232.96 166.174 1060.68C256.03 1060.38 345.127 1060.55 434.253 1060.52C434.253 1043.74 434.253 1027.88 434.253 1011.13C345.166 1011.13 256.634 1011.13 166.815 1011.13C166.815 1006.4 166.669 1002.54 166.836 998.691C172.61 865.692 205.197 739.798 265.963 621.165C325.486 504.958 406.337 406.16 507.477 323.948C578.458 266.25 656.252 219.782 740.942 184.894C805.273 158.393 871.88 140.166 940.409 128.808C978.887 122.431 1017.69 119.298 1057.78 118.675C1057.78 212.153 1057.78 305.26 1057.78 399.087C1073.65 399.087 1088.47 399.087 1104.74 399.087C1104.74 305.87 1104.74 212.499 1104.74 118.455C1154.84 119.782 1203.05 124.899 1251.68 134.193ZM926.959 775.88C908.491 786.743 891.536 799.641 876.184 814.548C791.869 896.421 762.427 995.201 789.64 1109.13C806.829 1181.09 847.957 1238.9 908.524 1281.4C995.497 1342.42 1090.09 1355.21 1189.47 1317.5C1262.11 1289.94 1316.22 1239.43 1351.36 1170.21C1390.08 1093.94 1395.24 1014.27 1366.33 933.82C1334.8 846.066 1273.99 785.631 1187.1 751.977C1143.48 735.086 1097.93 730.054 1051.52 734.59C1007.5 738.893 966.394 752.725 926.959 775.88ZM1762.23 494.772C1727.02 450.622 1687.8 410.416 1644.94 373.601C1568.14 307.625 1482.38 256.729 1388.14 220.156C1323.96 195.249 1257.58 178.584 1189.15 170.494C1178.72 169.261 1168.22 168.598 1157.38 167.637C1157.38 182.46 1157.38 196.003 1157.38 209.943C1354.95 230.328 1523.98 311.014 1664.04 450.688C1804.3 590.565 1883.25 760.43 1904.29 957.603C1918.65 957.603 1932.83 957.603 1948.06 957.603C1931.53 785.094 1869.91 631.485 1762.23 494.772ZM339.637 582.597C269.32 697.805 227.729 822.424 215.923 957.397C231.081 957.397 245.217 957.397 259.251 957.397C279.928 759.982 359.344 590.571 499.286 450.951C639.288 311.271 808.319 230.298 1005.81 210.276C1005.81 195.966 1005.81 182.153 1005.81 167.338C989.956 169.05 974.728 170.249 959.635 172.399C880.395 183.687 804.253 205.839 731.264 238.658C660.741 270.368 595.517 310.737 535.528 359.536C458.066 422.549 392.832 496.33 339.637 582.597ZM1844.92 1347.8C1784.85 1488.6 1694.06 1605.31 1569.98 1695.2C1446.4 1784.74 1308.72 1838.4 1156.3 1852.63C1156.3 1867.37 1156.3 1881.5 1156.3 1895.66C1322.8 1885.44 1538.32 1805.38 1704.52 1636.2C1868.46 1469.3 1937.78 1259.02 1946.11 1114.38C1931.96 1114.38 1917.82 1114.38 1903.36 1114.38C1902.96 1117.21 1902.52 1119.48 1902.32 1121.76C1898.57 1163.99 1890.24 1205.41 1879.56 1246.35C1870.65 1280.5 1858.88 1313.73 1844.92 1347.8ZM216.49 1115.13C220.382 1142.79 223.388 1170.61 228.336 1198.08C242.236 1275.25 268.378 1348.46 303.71 1418.25C355.128 1519.8 423.356 1608.55 509.457 1683.34C602.205 1763.9 707.096 1822.83 824.081 1860.18C878.773 1877.65 934.843 1888.81 991.842 1895.39C996.993 1895.98 1002.22 1895.93 1008.06 1896.22C1008.06 1888.19 1008.06 1881.24 1008.06 1874.3C1008.06 1867.12 1008.06 1859.93 1008.06 1853.06C810.982 1832.2 641.449 1754.6 501.086 1616.53C360.649 1478.39 281.829 1309.6 259.328 1114.08C245.229 1114.08 231.608 1114.08 216.49 1115.13ZM1419.11 327.985C1336.56 288.016 1249.84 263.144 1157.97 255.151C1157.58 257.029 1157.12 258.256 1157.11 259.485C1157.06 272.117 1157.08 284.75 1157.08 298.064C1330.18 318.297 1478.93 389.345 1602 512.17C1725.4 635.33 1795.15 784.996 1815.88 957.583C1830.51 957.583 1844.4 957.583 1858.33 957.583C1841.99 729.503 1697.97 465.061 1419.11 327.985ZM398.21 757.273C450.44 631.322 530.603 526.868 639.378 444.572C748.038 362.364 870.08 313.431 1005.76 298.907C1005.76 283.993 1005.76 269.824 1005.76 255.613C640.778 285.887 332.47 595.732 304.941 957.51C319.178 957.51 333.383 957.51 348.262 957.51C355.357 888.886 371.573 822.554 398.21 757.273ZM1438.62 1725.58C1500.54 1693.65 1557.42 1654.37 1608.88 1607.43C1690.22 1533.22 1753.42 1445.78 1798.08 1345.13C1824.94 1284.6 1843.28 1221.45 1853.52 1156.01C1855.67 1142.33 1856.97 1128.51 1858.69 1114.52C1843.07 1114.52 1828.64 1114.52 1814.44 1114.52C1794.15 1287.32 1723.15 1434.81 1599.57 1556.24C1476.23 1677.43 1327.7 1746.49 1156.17 1765.69C1156.17 1780.23 1156.17 1793.78 1156.17 1808.57C1255.81 1799.7 1348.96 1771.33 1438.62 1725.58ZM410.709 1338.27C378.129 1266.95 357.314 1192.35 349.119 1114.5C333.866 1114.5 319.447 1114.5 304.972 1114.5C348.028 1526.24 696.522 1787.32 1007.52 1807.21C1007.52 1793.42 1007.52 1779.66 1007.52 1765.41C1001.03 1764.76 995.066 1764.35 989.152 1763.55C917.481 1753.89 848.333 1735.22 782.233 1705.63C715.498 1675.77 654.74 1636.58 599.284 1588.99C518.408 1519.59 456.166 1436.2 410.709 1338.27ZM1743.12 1113.78C1737.48 1113.78 1731.84 1113.78 1725.18 1113.78C1706.64 1262.13 1643.64 1388.62 1537.77 1493.23C1431.87 1597.85 1303.93 1658.12 1156.37 1677.5C1156.37 1691.9 1156.37 1706.03 1156.37 1720.2C1476.8 1690.86 1743.87 1417.84 1767.88 1114.57C1767.28 1114.34 1766.68 1113.9 1766.07 1113.9C1759.08 1113.82 1752.08 1113.81 1743.12 1113.78ZM514.775 1348.14C474.114 1275.21 448.281 1197.39 438.504 1114.52C423.291 1114.52 408.855 1114.52 394.359 1114.52C432.869 1468.51 737.643 1700.58 1007.63 1719.57C1007.63 1705.7 1007.63 1691.86 1007.63 1678.33C791.792 1645.49 626.195 1538.54 514.775 1348.14ZM1511.99 547.013C1634.67 656.958 1704.73 794.502 1726.87 957.585C1741.23 957.585 1755.4 957.585 1770.37 957.585C1758.91 852.006 1724.68 754.894 1668.61 665.661C1594.46 547.654 1493.16 460.118 1366.96 401.369C1300.47 370.414 1230.67 351.35 1157.51 343.752C1157.51 358.625 1157.51 372.127 1157.51 385.99C1292.02 403.419 1409.78 456.517 1511.99 547.013ZM706.382 451.382C495.611 587.396 404.785 806.912 394.655 957.962C407.286 957.962 419.887 957.979 432.487 957.94C434.09 957.935 435.692 957.628 437.304 957.461C455.48 807.97 517.3 679.623 623.28 573.633C729.102 467.8 857.275 405.479 1005.9 386.598C1005.9 371.692 1005.9 358.15 1005.9 344.021C1003.15 344.166 1000.89 344.137 998.664 344.423C958.967 349.525 919.94 357.794 881.648 369.447C819.801 388.268 761.924 415.631 706.382 451.382ZM1557.79 695.218C1543.85 677.805 1530.72 659.664 1515.83 643.098C1434.04 552.07 1333.7 491.681 1214.71 462.563C1210.69 461.579 1206.56 461.05 1202.19 460.258C1202.19 476.772 1202.19 492.271 1202.19 506.575C1406.28 564.252 1539.69 692.81 1601.57 895.251C1616.62 895.251 1632.02 895.251 1648.12 895.251C1631.07 822.545 1600.83 756.787 1557.79 695.218ZM558.127 895.861C565.283 896.889 564.891 891.01 566.009 886.913C580.141 835.126 602.362 786.959 631.167 741.795C664.086 690.181 704.9 645.661 753.285 608.206C804.277 568.733 860.148 538.381 922.036 519.561C935.303 515.527 948.55 511.424 962.056 507.275C962.056 499.156 962.056 491.509 962.056 483.862C962.056 476.101 962.056 468.34 962.056 460.347C723.844 509.898 556.023 705.195 516.29 895.861C529.708 895.861 542.997 895.861 558.127 895.861ZM666.21 1442.79C748.733 1525.92 846.52 1581.52 961.723 1607.65C961.723 1591.24 961.723 1576.03 961.723 1560.58C863.968 1535.16 778.025 1488.9 706.422 1417.82C634.916 1346.83 585.898 1262.58 562.226 1164.28C546.345 1164.28 531.066 1164.28 515.34 1164.28C515.659 1166.93 515.757 1169.21 516.224 1171.42C525.007 1213.02 539.675 1252.58 558.277 1290.67C585.697 1346.81 622.039 1396.74 666.21 1442.79ZM1605.96 1163.97C1602.11 1163.53 1600.8 1165.82 1600.01 1169.11C1598.38 1175.9 1596.69 1182.68 1594.74 1189.38C1573.76 1261.42 1538.32 1325.76 1489.71 1382.65C1420.52 1463.64 1334.71 1519.89 1233.12 1551.99C1222.77 1555.27 1212.24 1557.98 1201.5 1561.04C1201.5 1574.87 1201.48 1588.17 1201.52 1601.47C1201.52 1603.09 1201.84 1604.71 1202.15 1607.68C1317.08 1581.51 1415.14 1526.23 1497.21 1442.95C1574.13 1364.88 1625.3 1272.42 1649.18 1163.97C1634.37 1163.97 1621.08 1163.97 1605.96 1163.97ZM1102.68 1575.87C1103.32 1572.48 1104.52 1569.08 1104.53 1565.69C1104.66 1507.76 1104.64 1449.82 1104.65 1391.89C1104.65 1389.35 1104.65 1386.82 1104.65 1384.14C1088.88 1384.14 1074.07 1384.14 1059.01 1384.14C1059.01 1448.28 1059.01 1511.96 1059.01 1576C1073.44 1576 1087.08 1576 1102.68 1575.87ZM1104.74 499.175C1103.43 498.121 1102.08 496.117 1100.8 496.158C1086.9 496.601 1073 497.365 1058.7 498.062C1058.7 561.582 1058.7 624.354 1058.7 687.327C1074.15 687.327 1088.98 687.327 1104.8 687.327C1104.8 624.965 1104.8 563.054 1104.74 499.175ZM665 1104.01C690.478 1104.01 715.955 1104.01 741.333 1104.01C738.859 1086.9 736.541 1070.87 734.223 1054.85C732.933 1054.59 731.982 1054.24 731.031 1054.24C685.111 1054.18 639.191 1054.23 593.272 1053.98C588.528 1053.95 585.946 1056.21 583.286 1059.27C572.163 1072.08 561.008 1084.86 549.875 1097.66C548.484 1099.26 547.15 1100.91 544.557 1104.01C585.388 1104.01 624.194 1104.01 665 1104.01ZM1428.39 1065.48C1426.66 1078.13 1424.93 1090.78 1423.22 1103.26C1488.31 1103.26 1552.97 1103.26 1619.25 1103.26C1605.99 1087.99 1593.67 1074.08 1581.7 1059.88C1577.9 1055.37 1573.71 1053.89 1567.91 1053.93C1525.28 1054.17 1482.65 1054.11 1440.01 1054.14C1436.73 1054.15 1433.45 1054.15 1429.84 1054.15C1429.34 1057.8 1428.93 1060.75 1428.39 1065.48ZM559.308 955.165C554.952 955.582 550.347 954.143 545.06 956.504C558.002 970.909 570.341 984.353 582.309 998.121C586.381 1002.81 590.764 1004.57 597.004 1004.53C640.637 1004.27 684.272 1004.39 727.907 1004.35C730.138 1004.35 732.37 1003.97 734.628 1003.77C737.245 987.583 739.77 971.962 742.48 955.198C681.625 955.198 621.432 955.198 559.308 955.165ZM1487 955.137C1476.02 955.148 1465.03 955.145 1454.04 955.172C1443.26 955.198 1432.49 955.255 1421.66 955.299C1424.45 972.417 1427 988.059 1429.55 1003.71C1430.75 1003.93 1431.72 1004.27 1432.68 1004.27C1478.63 1004.34 1524.57 1004.31 1570.51 1004.52C1575.09 1004.54 1577.85 1002.58 1580.59 999.417C1591.27 987.089 1602.12 974.905 1612.84 962.614C1614.44 960.778 1615.72 958.661 1618.25 955.141C1573.96 955.141 1531.48 955.141 1487 955.137ZM1390.33 874.696C1393.93 881.724 1397.54 888.752 1401.05 895.6C1439.12 895.6 1476.56 895.6 1515.08 895.6C1513.45 891.92 1512.34 888.896 1510.83 886.081C1504.71 874.66 1498.09 863.492 1492.44 851.847C1489.47 845.731 1485.55 844.306 1479.16 844.377C1446.24 844.748 1413.3 844.637 1380.37 844.693C1378.53 844.696 1376.68 844.694 1373.76 844.694C1379.5 855.001 1384.6 864.175 1390.33 874.696ZM788.977 844.711C751.473 844.711 713.97 844.711 676.005 844.711C666.828 861.528 657.841 877.995 648.282 895.511C687.785 895.511 725.484 895.511 762.327 895.511C771.765 878.543 780.787 862.322 788.977 844.711ZM964.597 1385.1C964.597 1416.61 964.597 1448.12 964.597 1479.75C980.361 1488.1 995.517 1496.12 1011.62 1504.65C1011.62 1461.19 1011.62 1419.14 1011.62 1377C996.148 1372.7 980.947 1368.47 964.601 1363.92C964.601 1370.75 964.601 1376.95 964.597 1385.1ZM928.195 712.774C912.979 684.976 897.869 657.117 881.617 629.589C864.816 641.629 849.022 652.948 833.09 664.366C851.183 692.733 868.665 720.142 886.069 747.427C901.831 738.107 916.846 729.229 932.369 720.05C931.189 717.989 930.064 716.022 928.195 712.774ZM1199.17 613.161C1199.17 606.88 1199.17 600.599 1199.17 593.814C1184.03 585.526 1169.04 577.324 1152.82 568.45C1152.82 611.461 1152.82 652.546 1152.82 693.834C1168.11 698.103 1183.28 702.337 1199.17 706.774C1199.17 675.645 1199.17 645.379 1199.17 613.161ZM1273.84 644.823C1259.95 670.081 1246.05 695.339 1232.23 720.467C1247.77 729.597 1262.59 738.307 1278.26 747.52C1295.7 720.107 1313.27 692.486 1331.22 664.26C1314.91 652.625 1299.03 641.293 1282.52 629.507C1279.7 634.38 1277.07 638.931 1273.84 644.823ZM680.482 1215.36C714.902 1215.36 749.323 1215.36 784.64 1215.36C775.816 1197.43 767.65 1180.83 759.492 1164.25C723.07 1164.25 686.711 1164.25 648.784 1164.25C658.128 1181.45 666.781 1197.46 675.569 1213.39C676.092 1214.34 677.695 1214.69 680.482 1215.36ZM1462.95 1215.45C1470.94 1215.45 1478.93 1215.45 1487.56 1215.45C1496.59 1198.61 1505.61 1181.78 1515.17 1163.95C1477.31 1163.95 1441.08 1163.95 1404.74 1163.95C1396.41 1180.78 1388.11 1197.55 1379.25 1215.45C1407.2 1215.45 1434.08 1215.45 1462.95 1215.45ZM1194.34 1482.49C1199.59 1480.86 1198.67 1476.5 1198.67 1472.6C1198.67 1438.34 1198.68 1404.09 1198.62 1369.84C1198.62 1368.03 1198.14 1366.22 1197.85 1364.25C1182.28 1368.77 1167.39 1373.1 1152.42 1377.45C1152.42 1419.63 1152.42 1461.55 1152.42 1504.6C1166.61 1497.17 1179.8 1490.27 1194.34 1482.49ZM786.965 1366.58C791.479 1362.18 796.099 1357.88 800.489 1353.35C818.537 1334.75 836.515 1316.07 853.852 1298.12C840.679 1284.84 827.927 1271.99 814.768 1258.72C792.471 1281.11 769.63 1304.04 746.9 1326.85C760.404 1340.53 772.997 1353.29 786.965 1366.58ZM1412.17 1332.7C1413.87 1330.81 1415.57 1328.92 1417.48 1326.78C1394.02 1303.53 1370.93 1280.65 1348.03 1257.96C1334.76 1271.72 1322.37 1284.57 1309.63 1297.79C1332.21 1321.01 1354.62 1344.07 1377.49 1367.6C1389.1 1355.91 1400.11 1344.83 1412.17 1332.7ZM984.131 701.071C993.367 698.727 1002.6 696.383 1011.37 694.158C1011.37 652.205 1011.37 611.224 1011.37 568.668C995.158 577.436 980.146 585.556 965.8 593.315C965.8 631.68 965.8 668.79 965.8 706.543C971.839 704.757 977.205 703.17 984.131 701.071ZM1380.99 703.97C1378.64 701.817 1376.3 699.664 1373.61 697.186C1352.03 722.396 1331.11 746.838 1311.23 770.06C1322.87 782.429 1333.94 794.198 1345.28 806.251C1369.07 784.788 1392.69 763.471 1417 741.534C1404.92 728.915 1393.46 716.94 1380.99 703.97ZM832.043 793.041C839.454 786.076 846.865 779.112 854.484 771.952C832.771 746.552 811.693 721.897 790.049 696.579C775.434 711.885 761.699 726.269 747.318 741.331C771.598 763.276 795.372 784.765 819.296 806.389C823.728 801.729 827.382 797.886 832.043 793.041ZM1295.84 1395.08C1288.8 1371.4 1281.76 1347.71 1274.65 1323.79C1258.7 1333.33 1243.74 1342.29 1228.47 1351.42C1241.73 1383.8 1254.78 1415.68 1268.08 1448.16C1280.42 1438.58 1291.91 1429.66 1303.77 1420.45C1301.2 1412.35 1298.7 1404.5 1295.84 1395.08ZM909.944 1414.93C918.613 1393.56 927.282 1372.19 935.782 1351.23C919.882 1341.82 905.149 1333.09 889.714 1323.96C879.958 1356.46 870.367 1388.42 860.773 1420.38C872.612 1429.61 883.828 1438.36 896.023 1447.87C900.653 1436.96 905.024 1426.66 909.944 1414.93Z" fill="white"/>
<path d="M927.589 775.51C966.392 752.725 1007.5 738.892 1051.52 734.59C1097.93 730.053 1143.48 735.085 1187.09 751.976C1273.99 785.63 1334.8 846.066 1366.33 933.819C1395.24 1014.27 1390.08 1093.94 1351.36 1170.21C1316.22 1239.42 1262.11 1289.94 1189.47 1317.5C1090.09 1355.21 995.495 1342.42 908.523 1281.4C847.955 1238.9 806.827 1181.09 789.639 1109.13C762.426 995.2 791.868 896.42 876.183 814.548C891.535 799.64 908.49 786.743 927.589 775.51ZM845.988 1136.93C869.208 1187.71 903.881 1228.48 952.201 1256.94C1008.78 1290.27 1069.51 1301.31 1133.94 1287.84C1177.77 1278.67 1216.79 1259.06 1250.28 1229.07C1308.23 1177.17 1339.24 1112.38 1339.21 1034.48C1339.18 972.12 1319.12 915.953 1277.66 868.618C1215.65 797.825 1137.16 767.646 1044.27 780.813C964.885 792.065 903.221 834.153 861.872 902.62C817.094 976.767 812.814 1055.18 845.988 1136.93Z" fill="black"/>
<path d="M1762.68 495.325C1869.91 631.484 1931.53 785.093 1948.06 957.603C1932.83 957.603 1918.65 957.603 1904.29 957.603C1883.25 760.429 1804.3 590.564 1664.04 450.688C1523.98 311.014 1354.95 230.327 1157.38 209.942C1157.38 196.002 1157.38 182.459 1157.38 167.637C1168.22 168.597 1178.72 169.261 1189.15 170.494C1257.58 178.583 1323.96 195.249 1388.14 220.156C1482.38 256.728 1568.14 307.625 1644.94 373.6C1687.8 410.416 1727.02 450.621 1762.68 495.325Z" fill="black"/>
<path d="M339.991 581.962C392.831 496.33 458.064 422.549 535.527 359.536C595.516 310.737 660.74 270.368 731.263 238.658C804.252 205.839 880.393 183.687 959.634 172.399C974.727 170.249 989.955 169.05 1005.81 167.338C1005.81 182.153 1005.81 195.966 1005.81 210.276C808.318 230.298 639.287 311.271 499.285 450.951C359.342 590.571 279.927 759.982 259.249 957.397C245.216 957.397 231.08 957.397 215.922 957.397C227.728 822.424 269.319 697.805 339.991 581.962Z" fill="black"/>
<path d="M1845.25 1347.11C1858.88 1313.73 1870.65 1280.5 1879.56 1246.35C1890.24 1205.41 1898.57 1163.99 1902.32 1121.76C1902.52 1119.48 1902.96 1117.21 1903.36 1114.38C1917.82 1114.38 1931.96 1114.38 1946.11 1114.38C1937.78 1259.02 1868.46 1469.3 1704.52 1636.2C1538.32 1805.38 1322.8 1885.44 1156.3 1895.66C1156.3 1881.5 1156.3 1867.37 1156.3 1852.63C1308.72 1838.4 1446.4 1784.74 1569.98 1695.2C1694.06 1605.31 1784.85 1488.6 1845.25 1347.11Z" fill="black"/>
<path d="M217.238 1114.61C231.608 1114.08 245.229 1114.08 259.328 1114.08C281.829 1309.6 360.649 1478.39 501.085 1616.53C641.448 1754.6 810.982 1832.2 1008.06 1853.06C1008.06 1859.93 1008.06 1867.12 1008.06 1874.3C1008.06 1881.24 1008.06 1888.19 1008.06 1896.22C1002.22 1895.93 996.993 1895.98 991.842 1895.39C934.843 1888.81 878.773 1877.65 824.081 1860.18C707.095 1822.83 602.204 1763.9 509.457 1683.34C423.356 1608.55 355.128 1519.8 303.71 1418.25C268.377 1348.46 242.235 1275.25 228.336 1198.08C223.388 1170.61 220.382 1142.79 217.238 1114.61Z" fill="black"/>
<path d="M1419.8 328.286C1697.97 465.06 1841.99 729.503 1858.33 957.582C1844.4 957.582 1830.51 957.582 1815.88 957.582C1795.15 784.995 1725.39 635.329 1601.99 512.17C1478.93 389.344 1330.18 318.297 1157.08 298.063C1157.08 284.749 1157.06 272.116 1157.11 259.484C1157.12 258.255 1157.58 257.028 1157.97 255.15C1249.84 263.143 1336.56 288.015 1419.8 328.286Z" fill="black"/>
<path d="M397.968 758.002C371.573 822.554 355.357 888.886 348.262 957.51C333.383 957.51 319.178 957.51 304.941 957.51C332.47 595.731 640.778 285.887 1005.76 255.613C1005.76 269.824 1005.76 283.993 1005.76 298.906C870.08 313.431 748.038 362.364 639.379 444.572C530.603 526.867 450.44 631.322 397.968 758.002Z" fill="black"/>
<path d="M1437.93 1725.87C1348.96 1771.33 1255.81 1799.7 1156.17 1808.57C1156.17 1793.78 1156.17 1780.23 1156.17 1765.69C1327.7 1746.49 1476.23 1677.43 1599.57 1556.24C1723.15 1434.81 1794.15 1287.32 1814.44 1114.52C1828.64 1114.52 1843.07 1114.52 1858.69 1114.52C1856.97 1128.51 1855.67 1142.33 1853.52 1156.01C1843.28 1221.45 1824.94 1284.6 1798.08 1345.13C1753.42 1445.78 1690.22 1533.23 1608.88 1607.43C1557.42 1654.37 1500.54 1693.65 1437.93 1725.87Z" fill="black"/>
<path d="M411.061 1338.94C456.164 1436.2 518.407 1519.59 599.283 1588.99C654.739 1636.58 715.497 1675.77 782.232 1705.63C848.332 1735.22 917.48 1753.89 989.151 1763.55C995.064 1764.35 1001.03 1764.76 1007.52 1765.4C1007.52 1779.66 1007.52 1793.42 1007.52 1807.21C696.521 1787.32 348.027 1526.24 304.971 1114.5C319.445 1114.5 333.864 1114.5 349.118 1114.5C357.313 1192.35 378.127 1266.95 411.061 1338.94Z" fill="black"/>
<path d="M1744.1 1113.79C1752.08 1113.81 1759.08 1113.82 1766.07 1113.9C1766.68 1113.9 1767.28 1114.34 1767.88 1114.57C1743.87 1417.84 1476.8 1690.86 1156.37 1720.2C1156.37 1706.03 1156.37 1691.9 1156.37 1677.5C1303.93 1658.12 1431.87 1597.85 1537.77 1493.23C1643.64 1388.62 1706.64 1262.13 1725.18 1113.78C1731.84 1113.78 1737.48 1113.78 1744.1 1113.79Z" fill="black"/>
<path d="M515.169 1348.76C626.195 1538.54 791.792 1645.49 1007.63 1678.33C1007.63 1691.86 1007.63 1705.7 1007.63 1719.57C737.643 1700.58 432.869 1468.51 394.359 1114.52C408.855 1114.52 423.291 1114.52 438.504 1114.52C448.281 1197.39 474.114 1275.21 515.169 1348.76Z" fill="black"/>
<path d="M1511.49 546.508C1409.78 456.517 1292.02 403.419 1157.51 385.989C1157.51 372.127 1157.51 358.625 1157.51 343.752C1230.67 351.349 1300.47 370.413 1366.96 401.368C1493.16 460.117 1594.46 547.653 1668.61 665.661C1724.68 754.894 1758.9 852.006 1770.37 957.585C1755.4 957.585 1741.23 957.585 1726.87 957.585C1704.73 794.501 1634.67 656.958 1511.49 546.508Z" fill="black"/>
<path d="M706.973 450.96C761.923 415.632 819.801 388.268 881.647 369.447C919.94 357.794 958.967 349.525 998.663 344.423C1000.89 344.137 1003.15 344.166 1005.9 344.021C1005.9 358.15 1005.9 371.693 1005.9 386.598C857.274 405.479 729.102 467.8 623.28 573.633C517.3 679.623 455.48 807.97 437.304 957.461C435.692 957.628 434.09 957.935 432.487 957.94C419.886 957.98 407.285 957.962 394.654 957.962C404.785 806.912 495.61 587.396 706.973 450.96Z" fill="black"/>
<path d="M1558.17 695.825C1600.83 756.787 1631.07 822.545 1648.12 895.25C1632.03 895.25 1616.62 895.25 1601.57 895.25C1539.69 692.81 1406.28 564.251 1202.19 506.574C1202.19 492.27 1202.19 476.772 1202.19 460.258C1206.56 461.05 1210.69 461.578 1214.71 462.563C1333.7 491.681 1434.04 552.07 1515.83 643.098C1530.72 659.664 1543.85 677.804 1558.17 695.825Z" fill="black"/>
<path d="M557.206 895.861C542.996 895.861 529.707 895.861 516.289 895.861C556.021 705.196 723.843 509.898 962.055 460.348C962.055 468.341 962.055 476.102 962.055 483.862C962.055 491.509 962.055 499.156 962.055 507.276C948.549 511.424 935.302 515.527 922.035 519.562C860.147 538.381 804.276 568.734 753.284 608.206C704.899 645.661 664.085 690.181 631.166 741.795C602.36 786.96 580.14 835.126 566.008 886.913C564.889 891.011 565.282 896.889 557.206 895.861Z" fill="black"/>
<path d="M665.735 1442.26C622.039 1396.74 585.696 1346.81 558.277 1290.67C539.674 1252.58 525.006 1213.02 516.223 1171.42C515.757 1169.21 515.658 1166.93 515.34 1164.28C531.066 1164.28 546.345 1164.28 562.226 1164.28C585.897 1262.58 634.916 1346.83 706.421 1417.82C778.025 1488.9 863.967 1535.17 961.723 1560.58C961.723 1576.03 961.723 1591.24 961.723 1607.65C846.52 1581.52 748.733 1525.92 665.735 1442.26Z" fill="black"/>
<path d="M1606.88 1163.97C1621.08 1163.97 1634.37 1163.97 1649.18 1163.97C1625.3 1272.42 1574.13 1364.88 1497.21 1442.95C1415.14 1526.23 1317.08 1581.51 1202.14 1607.68C1201.83 1604.71 1201.52 1603.09 1201.52 1601.47C1201.48 1588.17 1201.5 1574.87 1201.5 1561.04C1212.24 1557.98 1222.77 1555.27 1233.12 1551.99C1334.7 1519.89 1420.52 1463.64 1489.71 1382.65C1538.32 1325.76 1573.75 1261.42 1594.74 1189.38C1596.69 1182.68 1598.38 1175.9 1600.01 1169.11C1600.79 1165.82 1602.11 1163.53 1606.88 1163.97Z" fill="black"/>
<path d="M1101.7 1575.93C1087.08 1576 1073.44 1576 1059.01 1576C1059.01 1511.96 1059.01 1448.28 1059.01 1384.14C1074.07 1384.14 1088.88 1384.14 1104.65 1384.14C1104.65 1386.82 1104.65 1389.35 1104.65 1391.89C1104.64 1449.82 1104.66 1507.76 1104.53 1565.69C1104.52 1569.08 1103.32 1572.48 1101.7 1575.93Z" fill="black"/>
<path d="M1104.77 500.158C1104.8 563.053 1104.8 624.965 1104.8 687.326C1088.98 687.326 1074.15 687.326 1058.7 687.326C1058.7 624.353 1058.7 561.581 1058.7 498.061C1073 497.364 1086.9 496.6 1100.8 496.157C1102.08 496.116 1103.42 498.12 1104.77 500.158Z" fill="black"/>
<path d="M664 1104.01C624.194 1104.01 585.388 1104.01 544.557 1104.01C547.15 1100.91 548.484 1099.26 549.875 1097.66C561.008 1084.86 572.163 1072.08 583.286 1059.27C585.946 1056.21 588.529 1053.95 593.272 1053.98C639.191 1054.23 685.111 1054.18 731.031 1054.24C731.982 1054.24 732.933 1054.59 734.223 1054.85C736.541 1070.87 738.859 1086.9 741.333 1104.01C715.955 1104.01 690.478 1104.01 664 1104.01Z" fill="black"/>
<path d="M1428.46 1064.59C1428.93 1060.75 1429.34 1057.8 1429.84 1054.14C1433.45 1054.14 1436.73 1054.15 1440.01 1054.14C1482.65 1054.11 1525.28 1054.17 1567.92 1053.93C1573.71 1053.89 1577.9 1055.36 1581.7 1059.87C1593.67 1074.08 1605.99 1087.99 1619.25 1103.26C1552.97 1103.26 1488.31 1103.26 1423.22 1103.26C1424.93 1090.78 1426.66 1078.13 1428.46 1064.59Z" fill="black"/>
<path d="M560.274 955.182C621.432 955.198 681.625 955.198 742.48 955.198C739.771 971.962 737.246 987.583 734.629 1003.77C732.37 1003.97 730.139 1004.35 727.907 1004.35C684.273 1004.39 640.637 1004.27 597.004 1004.53C590.764 1004.57 586.381 1002.81 582.309 998.122C570.342 984.354 558.003 970.909 545.061 956.505C550.348 954.144 554.952 955.582 560.274 955.182Z" fill="black"/>
<path d="M1488 955.139C1531.48 955.14 1573.96 955.14 1618.25 955.14C1615.72 958.661 1614.44 960.778 1612.84 962.614C1602.11 974.904 1591.27 987.088 1580.59 999.417C1577.85 1002.58 1575.09 1004.54 1570.51 1004.52C1524.57 1004.31 1478.63 1004.34 1432.68 1004.27C1431.72 1004.27 1430.75 1003.93 1429.55 1003.71C1427 988.059 1424.45 972.417 1421.66 955.298C1432.49 955.255 1443.26 955.198 1454.04 955.172C1465.03 955.145 1476.01 955.147 1488 955.139Z" fill="black"/>
<path d="M1390.02 874.023C1384.6 864.175 1379.5 855.001 1373.76 844.694C1376.68 844.694 1378.53 844.696 1380.37 844.693C1413.3 844.637 1446.24 844.748 1479.16 844.378C1485.55 844.306 1489.47 845.731 1492.44 851.847C1498.09 863.492 1504.71 874.66 1510.83 886.081C1512.34 888.896 1513.45 891.92 1515.08 895.601C1476.56 895.601 1439.12 895.601 1401.04 895.601C1397.54 888.752 1393.93 881.724 1390.02 874.023Z" fill="#00ABDC"/>
<path d="M789.392 845.405C780.786 862.321 771.763 878.543 762.326 895.51C725.483 895.51 687.783 895.51 648.281 895.51C657.84 877.994 666.826 861.527 676.004 844.711C713.968 844.711 751.472 844.711 789.392 845.405Z" fill="#00ABDC"/>
<path d="M964.599 1384.12C964.601 1376.95 964.601 1370.74 964.601 1363.92C980.948 1368.47 996.149 1372.7 1011.62 1377C1011.62 1419.14 1011.62 1461.19 1011.62 1504.65C995.517 1496.12 980.362 1488.1 964.598 1479.75C964.598 1448.12 964.598 1416.61 964.599 1384.12Z" fill="black"/>
<path d="M928.567 713.414C930.064 716.021 931.189 717.988 932.369 720.049C916.846 729.228 901.831 738.107 886.069 747.427C868.665 720.141 851.183 692.733 833.09 664.365C849.022 652.948 864.816 641.628 881.617 629.588C897.869 657.117 912.979 684.976 928.567 713.414Z" fill="black"/>
<path d="M1199.17 614.136C1199.17 645.378 1199.17 675.645 1199.17 706.774C1183.28 702.337 1168.11 698.103 1152.82 693.833C1152.82 652.546 1152.82 611.461 1152.82 568.449C1169.04 577.324 1184.03 585.526 1199.17 593.813C1199.17 600.598 1199.17 606.879 1199.17 614.136Z" fill="#2D74AA"/>
<path d="M1274.14 644.151C1277.07 638.93 1279.7 634.379 1282.52 629.506C1299.03 641.292 1314.91 652.624 1331.22 664.259C1313.27 692.485 1295.7 720.106 1278.26 747.519C1262.59 738.306 1247.77 729.596 1232.23 720.466C1246.05 695.338 1259.95 670.08 1274.14 644.151Z" fill="black"/>
<path d="M679.638 1215.34C677.695 1214.69 676.091 1214.34 675.569 1213.39C666.781 1197.46 658.128 1181.45 648.783 1164.25C686.711 1164.25 723.07 1164.25 759.492 1164.25C767.65 1180.83 775.815 1197.43 784.639 1215.36C749.323 1215.36 714.902 1215.36 679.638 1215.34Z" fill="black"/>
<path d="M1461.96 1215.45C1434.08 1215.45 1407.2 1215.45 1379.25 1215.45C1388.11 1197.55 1396.41 1180.78 1404.74 1163.95C1441.08 1163.95 1477.31 1163.95 1515.16 1163.95C1505.61 1181.78 1496.59 1198.61 1487.56 1215.45C1478.93 1215.45 1470.94 1215.45 1461.96 1215.45Z" fill="black"/>
<path d="M1193.66 1482.93C1179.8 1490.27 1166.61 1497.17 1152.42 1504.6C1152.42 1461.55 1152.42 1419.63 1152.42 1377.45C1167.39 1373.1 1182.28 1368.77 1197.85 1364.25C1198.14 1366.22 1198.62 1368.03 1198.63 1369.84C1198.68 1404.09 1198.68 1438.34 1198.67 1472.6C1198.67 1476.5 1199.59 1480.86 1193.66 1482.93Z" fill="black"/>
<path d="M786.277 1366.31C772.997 1353.29 760.404 1340.53 746.9 1326.85C769.63 1304.04 792.471 1281.11 814.768 1258.72C827.927 1271.99 840.68 1284.84 853.852 1298.12C836.516 1316.07 818.537 1334.74 800.489 1353.35C796.099 1357.87 791.479 1362.18 786.277 1366.31Z" fill="black"/>
<path d="M1411.65 1333.22C1400.11 1344.83 1389.1 1355.91 1377.49 1367.6C1354.62 1344.07 1332.21 1321.01 1309.62 1297.79C1322.37 1284.57 1334.76 1271.72 1348.03 1257.96C1370.92 1280.65 1394.01 1303.53 1417.48 1326.78C1415.57 1328.92 1413.87 1330.81 1411.65 1333.22Z" fill="black"/>
<path d="M983.35 701.328C977.204 703.17 971.839 704.757 965.799 706.543C965.799 668.79 965.799 631.68 965.799 593.315C980.145 585.556 995.157 577.436 1011.37 568.668C1011.37 611.224 1011.37 652.205 1011.37 694.158C1002.6 696.383 993.366 698.727 983.35 701.328Z" fill="black"/>
<path d="M1381.49 704.467C1393.46 716.939 1404.92 728.914 1417 741.533C1392.69 763.471 1369.07 784.787 1345.28 806.251C1333.94 794.197 1322.87 782.428 1311.23 770.059C1331.11 746.838 1352.03 722.396 1373.61 697.186C1376.3 699.664 1378.64 701.817 1381.49 704.467Z" fill="black"/>
<path d="M831.541 793.541C827.383 797.885 823.728 801.728 819.297 806.388C795.372 784.764 771.598 763.275 747.318 741.33C761.7 726.268 775.434 711.884 790.049 696.578C811.693 721.896 832.771 746.551 854.485 771.951C846.865 779.111 839.455 786.075 831.541 793.541Z" fill="black"/>
<path d="M1296.02 1395.86C1298.7 1404.5 1301.2 1412.35 1303.77 1420.45C1291.91 1429.66 1280.42 1438.58 1268.08 1448.16C1254.78 1415.68 1241.73 1383.8 1228.47 1351.42C1243.74 1342.29 1258.7 1333.33 1274.65 1323.79C1281.76 1347.71 1288.8 1371.4 1296.02 1395.86Z" fill="black"/>
<path d="M909.669 1415.65C905.023 1426.66 900.652 1436.97 896.022 1447.87C883.826 1438.36 872.611 1429.61 860.771 1420.38C870.365 1388.42 879.957 1356.46 889.713 1323.96C905.148 1333.1 919.881 1341.82 935.781 1351.23C927.281 1372.19 918.612 1393.56 909.669 1415.65Z" fill="black"/>
<path d="M845.716 1136.21C812.815 1055.18 817.095 976.768 861.873 902.621C903.222 834.154 964.887 792.066 1044.27 780.814C1137.17 767.647 1215.65 797.826 1277.66 868.62C1319.12 915.955 1339.18 972.121 1339.21 1034.49C1339.25 1112.38 1308.23 1177.17 1250.28 1229.07C1216.79 1259.06 1177.77 1278.67 1133.94 1287.84C1069.52 1301.31 1008.78 1290.27 952.203 1256.94C903.882 1228.48 869.209 1187.72 845.716 1136.21ZM1223.75 1190.78C1227.27 1187.23 1230.91 1183.79 1234.29 1180.11C1293.28 1115.99 1308.63 1041.64 1279.57 960.573C1229.15 819.924 1051.2 776.742 941.11 877.401C887.083 926.798 863.499 988.767 872.466 1061.72C879.608 1119.82 908.195 1166.5 954.278 1202.01C1003.05 1239.59 1058.41 1252.42 1119.08 1242.36C1158.64 1235.8 1192.68 1217.85 1223.75 1190.78Z" fill="white"/>
<path d="M1223.23 1191.26C1192.68 1217.85 1158.64 1235.8 1119.08 1242.36C1058.41 1252.42 1003.05 1239.59 954.277 1202.01C908.195 1166.5 879.608 1119.82 872.466 1061.72C863.498 988.766 887.082 926.796 941.109 877.399C1051.2 776.74 1229.15 819.923 1279.57 960.572C1308.62 1041.64 1293.28 1115.99 1234.29 1180.11C1230.91 1183.79 1227.27 1187.23 1223.23 1191.26ZM1242 981.123C1236.25 963.943 1228.2 947.949 1217.13 933.559C1177.18 881.623 1124.15 858.625 1059.52 866.747C959.7 879.291 892.309 979.635 918.525 1076.49C951.083 1196.78 1094.77 1244.62 1192.21 1162.41C1243.79 1118.88 1263.38 1046.99 1242 981.123Z" fill="black"/>
<path d="M1242.22 981.89C1263.38 1046.99 1243.79 1118.88 1192.21 1162.41C1094.77 1244.62 951.083 1196.78 918.525 1076.49C892.309 979.635 959.7 879.291 1059.52 866.747C1124.15 858.625 1177.18 881.624 1217.13 933.559C1228.2 947.949 1236.25 963.943 1242.22 981.89ZM1194.51 1091.28C1206.83 1065.99 1211.33 1039.56 1206.26 1011.7C1193.64 942.34 1128.45 891.617 1049.37 911.507C976.528 929.828 933.314 1012.81 967.276 1085.89C989.271 1133.23 1035.36 1161.88 1087.88 1159.12C1134.92 1156.65 1170.21 1133.38 1194.51 1091.28Z" fill="#C7C7C7"/>
<path d="M1194.21 1091.96C1170.21 1133.38 1134.92 1156.65 1087.88 1159.12C1035.36 1161.88 989.27 1133.23 967.275 1085.89C933.313 1012.81 976.527 929.829 1049.37 911.508C1128.45 891.618 1193.64 942.341 1206.26 1011.7C1211.33 1039.56 1206.83 1065.99 1194.21 1091.96ZM1105.7 1087.03C1117.94 1081.42 1127.25 1072.58 1133.35 1060.68C1143.38 1041.08 1142.75 1021.4 1131.32 1002.7C1119.85 983.953 1102.41 973.884 1080.5 974.885C1055.44 976.029 1036.84 988.674 1027.69 1012.47C1018.89 1035.33 1023.04 1056.86 1040.26 1074.2C1058.19 1092.24 1079.93 1097.58 1105.7 1087.03Z" fill="black"/>
<path d="M1105.01 1087.36C1079.93 1097.58 1058.19 1092.24 1040.26 1074.2C1023.04 1056.86 1018.89 1035.33 1027.69 1012.47C1036.84 988.674 1055.44 976.029 1080.5 974.885C1102.41 973.884 1119.85 983.953 1131.32 1002.7C1142.75 1021.4 1143.38 1041.08 1133.35 1060.68C1127.25 1072.58 1117.94 1081.42 1105.01 1087.36Z" fill="white"/>
</g>
<defs>
<clipPath id="clip0_958_729">
<rect width="2112" height="2048" fill="white"/>
</clipPath>
</defs>
</svg>
